<svg xmlns="http://www.w3.org/2000/svg" width="1200" height="800" viewBox="0 0 1200 800">
  <g fill="#ffffff">
    <path transform="translate(110 120) scale(1.4)" opacity="0.95" d="M0,-14C1.6,-4,4,-1.6,14,0C4,1.6,1.6,4,0,14C-1.6,4,-4,1.6,-14,0C-4,-1.6,-1.6,-4,0,-14Z"/>
    <path transform="translate(300 90) scale(0.8)" opacity="0.8" d="M0,-14C1.6,-4,4,-1.6,14,0C4,1.6,1.6,4,0,14C-1.6,4,-4,1.6,-14,0C-4,-1.6,-1.6,-4,0,-14Z"/>
    <path transform="translate(540 150) scale(1.0)" opacity="0.7" d="M0,-14C1.6,-4,4,-1.6,14,0C4,1.6,1.6,4,0,14C-1.6,4,-4,1.6,-14,0C-4,-1.6,-1.6,-4,0,-14Z"/>
    <path transform="translate(770 80) scale(1.2)" opacity="0.9" d="M0,-14C1.6,-4,4,-1.6,14,0C4,1.6,1.6,4,0,14C-1.6,4,-4,1.6,-14,0C-4,-1.6,-1.6,-4,0,-14Z"/>
    <path transform="translate(980 140) scale(0.9)" opacity="0.8" d="M0,-14C1.6,-4,4,-1.6,14,0C4,1.6,1.6,4,0,14C-1.6,4,-4,1.6,-14,0C-4,-1.6,-1.6,-4,0,-14Z"/>
    <path transform="translate(1090 60) scale(1.5)" opacity="0.95" d="M0,-14C1.6,-4,4,-1.6,14,0C4,1.6,1.6,4,0,14C-1.6,4,-4,1.6,-14,0C-4,-1.6,-1.6,-4,0,-14Z"/>
    <path transform="translate(180 360) scale(0.7)" opacity="0.6" d="M0,-14C1.6,-4,4,-1.6,14,0C4,1.6,1.6,4,0,14C-1.6,4,-4,1.6,-14,0C-4,-1.6,-1.6,-4,0,-14Z"/>
    <path transform="translate(440 300) scale(1.1)" opacity="0.85" d="M0,-14C1.6,-4,4,-1.6,14,0C4,1.6,1.6,4,0,14C-1.6,4,-4,1.6,-14,0C-4,-1.6,-1.6,-4,0,-14Z"/>
    <path transform="translate(690 420) scale(0.8)" opacity="0.7" d="M0,-14C1.6,-4,4,-1.6,14,0C4,1.6,1.6,4,0,14C-1.6,4,-4,1.6,-14,0C-4,-1.6,-1.6,-4,0,-14Z"/>
    <path transform="translate(910 350) scale(1.3)" opacity="0.9" d="M0,-14C1.6,-4,4,-1.6,14,0C4,1.6,1.6,4,0,14C-1.6,4,-4,1.6,-14,0C-4,-1.6,-1.6,-4,0,-14Z"/>
    <path transform="translate(1130 300) scale(0.7)" opacity="0.6" d="M0,-14C1.6,-4,4,-1.6,14,0C4,1.6,1.6,4,0,14C-1.6,4,-4,1.6,-14,0C-4,-1.6,-1.6,-4,0,-14Z"/>
    <path transform="translate(120 610) scale(1.2)" opacity="0.9" d="M0,-14C1.6,-4,4,-1.6,14,0C4,1.6,1.6,4,0,14C-1.6,4,-4,1.6,-14,0C-4,-1.6,-1.6,-4,0,-14Z"/>
    <path transform="translate(370 690) scale(0.9)" opacity="0.8" d="M0,-14C1.6,-4,4,-1.6,14,0C4,1.6,1.6,4,0,14C-1.6,4,-4,1.6,-14,0C-4,-1.6,-1.6,-4,0,-14Z"/>
    <path transform="translate(630 630) scale(1.0)" opacity="0.7" d="M0,-14C1.6,-4,4,-1.6,14,0C4,1.6,1.6,4,0,14C-1.6,4,-4,1.6,-14,0C-4,-1.6,-1.6,-4,0,-14Z"/>
    <path transform="translate(850 710) scale(1.4)" opacity="0.95" d="M0,-14C1.6,-4,4,-1.6,14,0C4,1.6,1.6,4,0,14C-1.6,4,-4,1.6,-14,0C-4,-1.6,-1.6,-4,0,-14Z"/>
    <path transform="translate(1060 650) scale(0.8)" opacity="0.7" d="M0,-14C1.6,-4,4,-1.6,14,0C4,1.6,1.6,4,0,14C-1.6,4,-4,1.6,-14,0C-4,-1.6,-1.6,-4,0,-14Z"/>
  </g>
</svg>
